<svg xmlns="http://www.w3.org/2000/svg" width="1000" height="276" viewBox="0 0 1000 276" role="img" aria-label="Contributions per day over the last 60 days. 1036 total, peak 87 in one day.">
<rect width="1000" height="276" fill="#0d1117"/>
<text x="44" y="20" fill="#94a3b8" font-family="system-ui,-apple-system,Segoe UI,sans-serif" font-size="13" font-weight="600">Contributions per day</text>
<text x="984" y="20" fill="#64748b" font-family="system-ui,-apple-system,Segoe UI,sans-serif" font-size="12" text-anchor="end">1,036 in the last 60 days &#183; peak 87</text>
<line x1="44" y1="230.0" x2="984" y2="230.0" stroke="#1e293b" stroke-width="1"/>
<text x="36" y="234.0" fill="#64748b" font-family="system-ui,-apple-system,Segoe UI,sans-serif" font-size="11" text-anchor="end">0</text>
<line x1="44" y1="132.0" x2="984" y2="132.0" stroke="#1e293b" stroke-width="1"/>
<text x="36" y="136.0" fill="#64748b" font-family="system-ui,-apple-system,Segoe UI,sans-serif" font-size="11" text-anchor="end">50</text>
<line x1="44" y1="34.0" x2="984" y2="34.0" stroke="#1e293b" stroke-width="1"/>
<text x="36" y="38.0" fill="#64748b" font-family="system-ui,-apple-system,Segoe UI,sans-serif" font-size="11" text-anchor="end">100</text>
<path d="M92.00,230.00 V228.12 Q92.00,224.12 96.00,224.12 H101.67 Q105.67,224.12 105.67,228.12 V230.00 Z" fill="#2ea043"><title>2026-07-20: 3</title></path>
<path d="M107.67,230.00 V224.20 Q107.67,220.20 111.67,220.20 H117.33 Q121.33,220.20 121.33,224.20 V230.00 Z" fill="#2ea043"><title>2026-07-21: 5</title></path>
<path d="M123.33,230.00 V208.52 Q123.33,204.52 127.33,204.52 H133.00 Q137.00,204.52 137.00,208.52 V230.00 Z" fill="#2ea043"><title>2026-07-22: 13</title></path>
<path d="M139.00,230.00 V222.24 Q139.00,218.24 143.00,218.24 H148.67 Q152.67,218.24 152.67,222.24 V230.00 Z" fill="#2ea043"><title>2026-07-23: 6</title></path>
<path d="M154.67,230.00 V216.36 Q154.67,212.36 158.67,212.36 H164.33 Q168.33,212.36 168.33,216.36 V230.00 Z" fill="#2ea043"><title>2026-07-24: 9</title></path>
<path d="M170.33,230.00 V226.16 Q170.33,222.16 174.33,222.16 H180.00 Q184.00,222.16 184.00,226.16 V230.00 Z" fill="#2ea043"><title>2026-07-25: 4</title></path>
<path d="M186.00,230.00 V226.16 Q186.00,222.16 190.00,222.16 H195.67 Q199.67,222.16 199.67,226.16 V230.00 Z" fill="#2ea043"><title>2026-07-26: 4</title></path>
<path d="M201.67,230.00 V226.16 Q201.67,222.16 205.67,222.16 H211.33 Q215.33,222.16 215.33,226.16 V230.00 Z" fill="#2ea043"><title>2026-07-27: 4</title></path>
<path d="M217.33,230.00 V226.16 Q217.33,222.16 221.33,222.16 H227.00 Q231.00,222.16 231.00,226.16 V230.00 Z" fill="#2ea043"><title>2026-07-28: 4</title></path>
<path d="M233.00,230.00 V153.64 Q233.00,149.64 237.00,149.64 H242.67 Q246.67,149.64 246.67,153.64 V230.00 Z" fill="#2ea043"><title>2026-07-29: 41</title></path>
<path d="M248.67,230.00 V161.48 Q248.67,157.48 252.67,157.48 H258.33 Q262.33,157.48 262.33,161.48 V230.00 Z" fill="#2ea043"><title>2026-07-30: 37</title></path>
<path d="M264.33,230.00 V186.96 Q264.33,182.96 268.33,182.96 H274.00 Q278.00,182.96 278.00,186.96 V230.00 Z" fill="#2ea043"><title>2026-07-31: 24</title></path>
<path d="M280.00,230.00 V230.00 Q280.00,226.08 283.92,226.08 H289.75 Q293.67,226.08 293.67,230.00 V230.00 Z" fill="#2ea043"><title>2026-08-01: 2</title></path>
<path d="M295.67,230.00 V230.00 Q295.67,228.00 297.67,228.00 H307.33 Q309.33,228.00 309.33,230.00 V230.00 Z" fill="#2ea043"><title>2026-08-02: 1</title></path>
<path d="M311.33,230.00 V139.92 Q311.33,135.92 315.33,135.92 H321.00 Q325.00,135.92 325.00,139.92 V230.00 Z" fill="#2ea043"><title>2026-08-03: 48</title></path>
<path d="M327.00,230.00 V120.32 Q327.00,116.32 331.00,116.32 H336.67 Q340.67,116.32 340.67,120.32 V230.00 Z" fill="#2ea043"><title>2026-08-04: 58</title></path>
<path d="M342.67,230.00 V149.72 Q342.67,145.72 346.67,145.72 H352.33 Q356.33,145.72 356.33,149.72 V230.00 Z" fill="#2ea043"><title>2026-08-05: 43</title></path>
<path d="M358.33,230.00 V167.36 Q358.33,163.36 362.33,163.36 H368.00 Q372.00,163.36 372.00,167.36 V230.00 Z" fill="#2ea043"><title>2026-08-06: 34</title></path>
<path d="M374.00,230.00 V218.32 Q374.00,214.32 378.00,214.32 H383.67 Q387.67,214.32 387.67,218.32 V230.00 Z" fill="#2ea043"><title>2026-08-07: 8</title></path>
<path d="M405.33,230.00 V230.00 Q405.33,228.00 407.33,228.00 H417.00 Q419.00,228.00 419.00,230.00 V230.00 Z" fill="#2ea043"><title>2026-08-09: 1</title></path>
<path d="M421.00,230.00 V63.48 Q421.00,59.48 425.00,59.48 H430.67 Q434.67,59.48 434.67,63.48 V230.00 Z" fill="#2ea043"><title>2026-08-10: 87</title></path>
<path d="M436.67,230.00 V128.16 Q436.67,124.16 440.67,124.16 H446.33 Q450.33,124.16 450.33,128.16 V230.00 Z" fill="#2ea043"><title>2026-08-11: 54</title></path>
<path d="M452.33,230.00 V120.32 Q452.33,116.32 456.33,116.32 H462.00 Q466.00,116.32 466.00,120.32 V230.00 Z" fill="#2ea043"><title>2026-08-12: 58</title></path>
<path d="M468.00,230.00 V149.72 Q468.00,145.72 472.00,145.72 H477.67 Q481.67,145.72 481.67,149.72 V230.00 Z" fill="#2ea043"><title>2026-08-13: 43</title></path>
<path d="M483.67,230.00 V226.16 Q483.67,222.16 487.67,222.16 H493.33 Q497.33,222.16 497.33,226.16 V230.00 Z" fill="#2ea043"><title>2026-08-14: 4</title></path>
<path d="M515.00,230.00 V230.00 Q515.00,228.00 517.00,228.00 H526.67 Q528.67,228.00 528.67,230.00 V230.00 Z" fill="#2ea043"><title>2026-08-16: 1</title></path>
<path d="M562.00,230.00 V230.00 Q562.00,228.00 564.00,228.00 H573.67 Q575.67,228.00 575.67,230.00 V230.00 Z" fill="#2ea043"><title>2026-08-19: 1</title></path>
<path d="M593.33,230.00 V230.00 Q593.33,228.00 595.33,228.00 H605.00 Q607.00,228.00 607.00,230.00 V230.00 Z" fill="#2ea043"><title>2026-08-21: 1</title></path>
<path d="M609.00,230.00 V230.00 Q609.00,226.08 612.92,226.08 H618.75 Q622.67,226.08 622.67,230.00 V230.00 Z" fill="#2ea043"><title>2026-08-22: 2</title></path>
<path d="M624.67,230.00 V220.28 Q624.67,216.28 628.67,216.28 H634.33 Q638.33,216.28 638.33,220.28 V230.00 Z" fill="#2ea043"><title>2026-08-23: 7</title></path>
<path d="M640.33,230.00 V228.12 Q640.33,224.12 644.33,224.12 H650.00 Q654.00,224.12 654.00,228.12 V230.00 Z" fill="#2ea043"><title>2026-08-24: 3</title></path>
<path d="M656.00,230.00 V206.56 Q656.00,202.56 660.00,202.56 H665.67 Q669.67,202.56 669.67,206.56 V230.00 Z" fill="#2ea043"><title>2026-08-25: 14</title></path>
<path d="M671.67,230.00 V126.20 Q671.67,122.20 675.67,122.20 H681.33 Q685.33,122.20 685.33,126.20 V230.00 Z" fill="#2ea043"><title>2026-08-26: 55</title></path>
<path d="M687.33,230.00 V177.16 Q687.33,173.16 691.33,173.16 H697.00 Q701.00,173.16 701.00,177.16 V230.00 Z" fill="#2ea043"><title>2026-08-27: 29</title></path>
<path d="M703.00,230.00 V210.48 Q703.00,206.48 707.00,206.48 H712.67 Q716.67,206.48 716.67,210.48 V230.00 Z" fill="#2ea043"><title>2026-08-28: 12</title></path>
<path d="M718.67,230.00 V228.12 Q718.67,224.12 722.67,224.12 H728.33 Q732.33,224.12 732.33,228.12 V230.00 Z" fill="#2ea043"><title>2026-08-29: 3</title></path>
<path d="M750.00,230.00 V122.28 Q750.00,118.28 754.00,118.28 H759.67 Q763.67,118.28 763.67,122.28 V230.00 Z" fill="#2ea043"><title>2026-08-31: 57</title></path>
<path d="M765.67,230.00 V155.60 Q765.67,151.60 769.67,151.60 H775.33 Q779.33,151.60 779.33,155.60 V230.00 Z" fill="#2ea043"><title>2026-09-01: 40</title></path>
<path d="M781.33,230.00 V167.36 Q781.33,163.36 785.33,163.36 H791.00 Q795.00,163.36 795.00,167.36 V230.00 Z" fill="#2ea043"><title>2026-09-02: 34</title></path>
<path d="M797.00,230.00 V167.36 Q797.00,163.36 801.00,163.36 H806.67 Q810.67,163.36 810.67,167.36 V230.00 Z" fill="#2ea043"><title>2026-09-03: 34</title></path>
<path d="M812.67,230.00 V149.72 Q812.67,145.72 816.67,145.72 H822.33 Q826.33,145.72 826.33,149.72 V230.00 Z" fill="#2ea043"><title>2026-09-04: 43</title></path>
<path d="M828.33,230.00 V210.48 Q828.33,206.48 832.33,206.48 H838.00 Q842.00,206.48 842.00,210.48 V230.00 Z" fill="#2ea043"><title>2026-09-05: 12</title></path>
<path d="M875.33,230.00 V183.04 Q875.33,179.04 879.33,179.04 H885.00 Q889.00,179.04 889.00,183.04 V230.00 Z" fill="#2ea043"><title>2026-09-08: 26</title></path>
<path d="M891.00,230.00 V192.84 Q891.00,188.84 895.00,188.84 H900.67 Q904.67,188.84 904.67,192.84 V230.00 Z" fill="#2ea043"><title>2026-09-09: 21</title></path>
<path d="M906.67,230.00 V177.16 Q906.67,173.16 910.67,173.16 H916.33 Q920.33,173.16 920.33,177.16 V230.00 Z" fill="#2ea043"><title>2026-09-10: 29</title></path>
<path d="M922.33,230.00 V200.68 Q922.33,196.68 926.33,196.68 H932.00 Q936.00,196.68 936.00,200.68 V230.00 Z" fill="#2ea043"><title>2026-09-11: 17</title></path>
<line x1="51.8" y1="230" x2="51.8" y2="234" stroke="#1e293b" stroke-width="1"/>
<text x="51.8" y="245" fill="#64748b" font-family="system-ui,-apple-system,Segoe UI,sans-serif" font-size="9" text-anchor="middle">17</text>
<line x1="67.5" y1="230" x2="67.5" y2="234" stroke="#1e293b" stroke-width="1"/>
<text x="67.5" y="245" fill="#64748b" font-family="system-ui,-apple-system,Segoe UI,sans-serif" font-size="9" text-anchor="middle">18</text>
<line x1="83.2" y1="230" x2="83.2" y2="234" stroke="#1e293b" stroke-width="1"/>
<text x="83.2" y="245" fill="#64748b" font-family="system-ui,-apple-system,Segoe UI,sans-serif" font-size="9" text-anchor="middle">19</text>
<line x1="98.8" y1="230" x2="98.8" y2="234" stroke="#1e293b" stroke-width="1"/>
<text x="98.8" y="245" fill="#64748b" font-family="system-ui,-apple-system,Segoe UI,sans-serif" font-size="9" text-anchor="middle">20</text>
<line x1="114.5" y1="230" x2="114.5" y2="234" stroke="#1e293b" stroke-width="1"/>
<text x="114.5" y="245" fill="#64748b" font-family="system-ui,-apple-system,Segoe UI,sans-serif" font-size="9" text-anchor="middle">21</text>
<line x1="130.2" y1="230" x2="130.2" y2="234" stroke="#1e293b" stroke-width="1"/>
<text x="130.2" y="245" fill="#64748b" font-family="system-ui,-apple-system,Segoe UI,sans-serif" font-size="9" text-anchor="middle">22</text>
<line x1="145.8" y1="230" x2="145.8" y2="234" stroke="#1e293b" stroke-width="1"/>
<text x="145.8" y="245" fill="#64748b" font-family="system-ui,-apple-system,Segoe UI,sans-serif" font-size="9" text-anchor="middle">23</text>
<line x1="161.5" y1="230" x2="161.5" y2="234" stroke="#1e293b" stroke-width="1"/>
<text x="161.5" y="245" fill="#64748b" font-family="system-ui,-apple-system,Segoe UI,sans-serif" font-size="9" text-anchor="middle">24</text>
<line x1="177.2" y1="230" x2="177.2" y2="234" stroke="#1e293b" stroke-width="1"/>
<text x="177.2" y="245" fill="#64748b" font-family="system-ui,-apple-system,Segoe UI,sans-serif" font-size="9" text-anchor="middle">25</text>
<line x1="192.8" y1="230" x2="192.8" y2="234" stroke="#1e293b" stroke-width="1"/>
<text x="192.8" y="245" fill="#64748b" font-family="system-ui,-apple-system,Segoe UI,sans-serif" font-size="9" text-anchor="middle">26</text>
<line x1="208.5" y1="230" x2="208.5" y2="234" stroke="#1e293b" stroke-width="1"/>
<text x="208.5" y="245" fill="#64748b" font-family="system-ui,-apple-system,Segoe UI,sans-serif" font-size="9" text-anchor="middle">27</text>
<line x1="224.2" y1="230" x2="224.2" y2="234" stroke="#1e293b" stroke-width="1"/>
<text x="224.2" y="245" fill="#64748b" font-family="system-ui,-apple-system,Segoe UI,sans-serif" font-size="9" text-anchor="middle">28</text>
<line x1="239.8" y1="230" x2="239.8" y2="234" stroke="#1e293b" stroke-width="1"/>
<text x="239.8" y="245" fill="#64748b" font-family="system-ui,-apple-system,Segoe UI,sans-serif" font-size="9" text-anchor="middle">29</text>
<line x1="255.5" y1="230" x2="255.5" y2="234" stroke="#1e293b" stroke-width="1"/>
<text x="255.5" y="245" fill="#64748b" font-family="system-ui,-apple-system,Segoe UI,sans-serif" font-size="9" text-anchor="middle">30</text>
<line x1="271.2" y1="230" x2="271.2" y2="234" stroke="#1e293b" stroke-width="1"/>
<text x="271.2" y="245" fill="#64748b" font-family="system-ui,-apple-system,Segoe UI,sans-serif" font-size="9" text-anchor="middle">31</text>
<line x1="286.8" y1="230" x2="286.8" y2="234" stroke="#1e293b" stroke-width="1"/>
<text x="286.8" y="245" fill="#64748b" font-family="system-ui,-apple-system,Segoe UI,sans-serif" font-size="9" text-anchor="middle">1</text>
<line x1="302.5" y1="230" x2="302.5" y2="234" stroke="#1e293b" stroke-width="1"/>
<text x="302.5" y="245" fill="#64748b" font-family="system-ui,-apple-system,Segoe UI,sans-serif" font-size="9" text-anchor="middle">2</text>
<line x1="318.2" y1="230" x2="318.2" y2="234" stroke="#1e293b" stroke-width="1"/>
<text x="318.2" y="245" fill="#64748b" font-family="system-ui,-apple-system,Segoe UI,sans-serif" font-size="9" text-anchor="middle">3</text>
<line x1="333.8" y1="230" x2="333.8" y2="234" stroke="#1e293b" stroke-width="1"/>
<text x="333.8" y="245" fill="#64748b" font-family="system-ui,-apple-system,Segoe UI,sans-serif" font-size="9" text-anchor="middle">4</text>
<line x1="349.5" y1="230" x2="349.5" y2="234" stroke="#1e293b" stroke-width="1"/>
<text x="349.5" y="245" fill="#64748b" font-family="system-ui,-apple-system,Segoe UI,sans-serif" font-size="9" text-anchor="middle">5</text>
<line x1="365.2" y1="230" x2="365.2" y2="234" stroke="#1e293b" stroke-width="1"/>
<text x="365.2" y="245" fill="#64748b" font-family="system-ui,-apple-system,Segoe UI,sans-serif" font-size="9" text-anchor="middle">6</text>
<line x1="380.8" y1="230" x2="380.8" y2="234" stroke="#1e293b" stroke-width="1"/>
<text x="380.8" y="245" fill="#64748b" font-family="system-ui,-apple-system,Segoe UI,sans-serif" font-size="9" text-anchor="middle">7</text>
<line x1="396.5" y1="230" x2="396.5" y2="234" stroke="#1e293b" stroke-width="1"/>
<text x="396.5" y="245" fill="#64748b" font-family="system-ui,-apple-system,Segoe UI,sans-serif" font-size="9" text-anchor="middle">8</text>
<line x1="412.2" y1="230" x2="412.2" y2="234" stroke="#1e293b" stroke-width="1"/>
<text x="412.2" y="245" fill="#64748b" font-family="system-ui,-apple-system,Segoe UI,sans-serif" font-size="9" text-anchor="middle">9</text>
<line x1="427.8" y1="230" x2="427.8" y2="234" stroke="#1e293b" stroke-width="1"/>
<text x="427.8" y="245" fill="#64748b" font-family="system-ui,-apple-system,Segoe UI,sans-serif" font-size="9" text-anchor="middle">10</text>
<line x1="443.5" y1="230" x2="443.5" y2="234" stroke="#1e293b" stroke-width="1"/>
<text x="443.5" y="245" fill="#64748b" font-family="system-ui,-apple-system,Segoe UI,sans-serif" font-size="9" text-anchor="middle">11</text>
<line x1="459.2" y1="230" x2="459.2" y2="234" stroke="#1e293b" stroke-width="1"/>
<text x="459.2" y="245" fill="#64748b" font-family="system-ui,-apple-system,Segoe UI,sans-serif" font-size="9" text-anchor="middle">12</text>
<line x1="474.8" y1="230" x2="474.8" y2="234" stroke="#1e293b" stroke-width="1"/>
<text x="474.8" y="245" fill="#64748b" font-family="system-ui,-apple-system,Segoe UI,sans-serif" font-size="9" text-anchor="middle">13</text>
<line x1="490.5" y1="230" x2="490.5" y2="234" stroke="#1e293b" stroke-width="1"/>
<text x="490.5" y="245" fill="#64748b" font-family="system-ui,-apple-system,Segoe UI,sans-serif" font-size="9" text-anchor="middle">14</text>
<line x1="506.2" y1="230" x2="506.2" y2="234" stroke="#1e293b" stroke-width="1"/>
<text x="506.2" y="245" fill="#64748b" font-family="system-ui,-apple-system,Segoe UI,sans-serif" font-size="9" text-anchor="middle">15</text>
<line x1="521.8" y1="230" x2="521.8" y2="234" stroke="#1e293b" stroke-width="1"/>
<text x="521.8" y="245" fill="#64748b" font-family="system-ui,-apple-system,Segoe UI,sans-serif" font-size="9" text-anchor="middle">16</text>
<line x1="537.5" y1="230" x2="537.5" y2="234" stroke="#1e293b" stroke-width="1"/>
<text x="537.5" y="245" fill="#64748b" font-family="system-ui,-apple-system,Segoe UI,sans-serif" font-size="9" text-anchor="middle">17</text>
<line x1="553.2" y1="230" x2="553.2" y2="234" stroke="#1e293b" stroke-width="1"/>
<text x="553.2" y="245" fill="#64748b" font-family="system-ui,-apple-system,Segoe UI,sans-serif" font-size="9" text-anchor="middle">18</text>
<line x1="568.8" y1="230" x2="568.8" y2="234" stroke="#1e293b" stroke-width="1"/>
<text x="568.8" y="245" fill="#64748b" font-family="system-ui,-apple-system,Segoe UI,sans-serif" font-size="9" text-anchor="middle">19</text>
<line x1="584.5" y1="230" x2="584.5" y2="234" stroke="#1e293b" stroke-width="1"/>
<text x="584.5" y="245" fill="#64748b" font-family="system-ui,-apple-system,Segoe UI,sans-serif" font-size="9" text-anchor="middle">20</text>
<line x1="600.2" y1="230" x2="600.2" y2="234" stroke="#1e293b" stroke-width="1"/>
<text x="600.2" y="245" fill="#64748b" font-family="system-ui,-apple-system,Segoe UI,sans-serif" font-size="9" text-anchor="middle">21</text>
<line x1="615.8" y1="230" x2="615.8" y2="234" stroke="#1e293b" stroke-width="1"/>
<text x="615.8" y="245" fill="#64748b" font-family="system-ui,-apple-system,Segoe UI,sans-serif" font-size="9" text-anchor="middle">22</text>
<line x1="631.5" y1="230" x2="631.5" y2="234" stroke="#1e293b" stroke-width="1"/>
<text x="631.5" y="245" fill="#64748b" font-family="system-ui,-apple-system,Segoe UI,sans-serif" font-size="9" text-anchor="middle">23</text>
<line x1="647.2" y1="230" x2="647.2" y2="234" stroke="#1e293b" stroke-width="1"/>
<text x="647.2" y="245" fill="#64748b" font-family="system-ui,-apple-system,Segoe UI,sans-serif" font-size="9" text-anchor="middle">24</text>
<line x1="662.8" y1="230" x2="662.8" y2="234" stroke="#1e293b" stroke-width="1"/>
<text x="662.8" y="245" fill="#64748b" font-family="system-ui,-apple-system,Segoe UI,sans-serif" font-size="9" text-anchor="middle">25</text>
<line x1="678.5" y1="230" x2="678.5" y2="234" stroke="#1e293b" stroke-width="1"/>
<text x="678.5" y="245" fill="#64748b" font-family="system-ui,-apple-system,Segoe UI,sans-serif" font-size="9" text-anchor="middle">26</text>
<line x1="694.2" y1="230" x2="694.2" y2="234" stroke="#1e293b" stroke-width="1"/>
<text x="694.2" y="245" fill="#64748b" font-family="system-ui,-apple-system,Segoe UI,sans-serif" font-size="9" text-anchor="middle">27</text>
<line x1="709.8" y1="230" x2="709.8" y2="234" stroke="#1e293b" stroke-width="1"/>
<text x="709.8" y="245" fill="#64748b" font-family="system-ui,-apple-system,Segoe UI,sans-serif" font-size="9" text-anchor="middle">28</text>
<line x1="725.5" y1="230" x2="725.5" y2="234" stroke="#1e293b" stroke-width="1"/>
<text x="725.5" y="245" fill="#64748b" font-family="system-ui,-apple-system,Segoe UI,sans-serif" font-size="9" text-anchor="middle">29</text>
<line x1="741.2" y1="230" x2="741.2" y2="234" stroke="#1e293b" stroke-width="1"/>
<text x="741.2" y="245" fill="#64748b" font-family="system-ui,-apple-system,Segoe UI,sans-serif" font-size="9" text-anchor="middle">30</text>
<line x1="756.8" y1="230" x2="756.8" y2="234" stroke="#1e293b" stroke-width="1"/>
<text x="756.8" y="245" fill="#64748b" font-family="system-ui,-apple-system,Segoe UI,sans-serif" font-size="9" text-anchor="middle">31</text>
<line x1="772.5" y1="230" x2="772.5" y2="234" stroke="#1e293b" stroke-width="1"/>
<text x="772.5" y="245" fill="#64748b" font-family="system-ui,-apple-system,Segoe UI,sans-serif" font-size="9" text-anchor="middle">1</text>
<line x1="788.2" y1="230" x2="788.2" y2="234" stroke="#1e293b" stroke-width="1"/>
<text x="788.2" y="245" fill="#64748b" font-family="system-ui,-apple-system,Segoe UI,sans-serif" font-size="9" text-anchor="middle">2</text>
<line x1="803.8" y1="230" x2="803.8" y2="234" stroke="#1e293b" stroke-width="1"/>
<text x="803.8" y="245" fill="#64748b" font-family="system-ui,-apple-system,Segoe UI,sans-serif" font-size="9" text-anchor="middle">3</text>
<line x1="819.5" y1="230" x2="819.5" y2="234" stroke="#1e293b" stroke-width="1"/>
<text x="819.5" y="245" fill="#64748b" font-family="system-ui,-apple-system,Segoe UI,sans-serif" font-size="9" text-anchor="middle">4</text>
<line x1="835.2" y1="230" x2="835.2" y2="234" stroke="#1e293b" stroke-width="1"/>
<text x="835.2" y="245" fill="#64748b" font-family="system-ui,-apple-system,Segoe UI,sans-serif" font-size="9" text-anchor="middle">5</text>
<line x1="850.8" y1="230" x2="850.8" y2="234" stroke="#1e293b" stroke-width="1"/>
<text x="850.8" y="245" fill="#64748b" font-family="system-ui,-apple-system,Segoe UI,sans-serif" font-size="9" text-anchor="middle">6</text>
<line x1="866.5" y1="230" x2="866.5" y2="234" stroke="#1e293b" stroke-width="1"/>
<text x="866.5" y="245" fill="#64748b" font-family="system-ui,-apple-system,Segoe UI,sans-serif" font-size="9" text-anchor="middle">7</text>
<line x1="882.2" y1="230" x2="882.2" y2="234" stroke="#1e293b" stroke-width="1"/>
<text x="882.2" y="245" fill="#64748b" font-family="system-ui,-apple-system,Segoe UI,sans-serif" font-size="9" text-anchor="middle">8</text>
<line x1="897.8" y1="230" x2="897.8" y2="234" stroke="#1e293b" stroke-width="1"/>
<text x="897.8" y="245" fill="#64748b" font-family="system-ui,-apple-system,Segoe UI,sans-serif" font-size="9" text-anchor="middle">9</text>
<line x1="913.5" y1="230" x2="913.5" y2="234" stroke="#1e293b" stroke-width="1"/>
<text x="913.5" y="245" fill="#64748b" font-family="system-ui,-apple-system,Segoe UI,sans-serif" font-size="9" text-anchor="middle">10</text>
<line x1="929.2" y1="230" x2="929.2" y2="234" stroke="#1e293b" stroke-width="1"/>
<text x="929.2" y="245" fill="#64748b" font-family="system-ui,-apple-system,Segoe UI,sans-serif" font-size="9" text-anchor="middle">11</text>
<line x1="944.8" y1="230" x2="944.8" y2="234" stroke="#1e293b" stroke-width="1"/>
<text x="944.8" y="245" fill="#64748b" font-family="system-ui,-apple-system,Segoe UI,sans-serif" font-size="9" text-anchor="middle">12</text>
<line x1="960.5" y1="230" x2="960.5" y2="234" stroke="#1e293b" stroke-width="1"/>
<text x="960.5" y="245" fill="#64748b" font-family="system-ui,-apple-system,Segoe UI,sans-serif" font-size="9" text-anchor="middle">13</text>
<line x1="976.2" y1="230" x2="976.2" y2="234" stroke="#1e293b" stroke-width="1"/>
<text x="976.2" y="245" fill="#64748b" font-family="system-ui,-apple-system,Segoe UI,sans-serif" font-size="9" text-anchor="middle">14</text>
<text x="161.5" y="261" fill="#94a3b8" font-family="system-ui,-apple-system,Segoe UI,sans-serif" font-size="11" text-anchor="middle">Jul</text>
<text x="521.8" y="261" fill="#94a3b8" font-family="system-ui,-apple-system,Segoe UI,sans-serif" font-size="11" text-anchor="middle">Aug</text>
<text x="874.3" y="261" fill="#94a3b8" font-family="system-ui,-apple-system,Segoe UI,sans-serif" font-size="11" text-anchor="middle">Sep</text>
</svg>