<svg xmlns="http://www.w3.org/2000/svg" width="1000" height="276" viewBox="0 0 1000 276" role="img" aria-label="Contributions per day over the last 60 days. 1354 total, peak 87 in one day.">
<rect width="1000" height="276" fill="#0d1117"/>
<text x="44" y="20" fill="#94a3b8" font-family="system-ui,-apple-system,Segoe UI,sans-serif" font-size="13" font-weight="600">Contributions per day</text>
<text x="984" y="20" fill="#64748b" font-family="system-ui,-apple-system,Segoe UI,sans-serif" font-size="12" text-anchor="end">1,354 in the last 60 days &#183; peak 87</text>
<line x1="44" y1="230.0" x2="984" y2="230.0" stroke="#1e293b" stroke-width="1"/>
<text x="36" y="234.0" fill="#64748b" font-family="system-ui,-apple-system,Segoe UI,sans-serif" font-size="11" text-anchor="end">0</text>
<line x1="44" y1="132.0" x2="984" y2="132.0" stroke="#1e293b" stroke-width="1"/>
<text x="36" y="136.0" fill="#64748b" font-family="system-ui,-apple-system,Segoe UI,sans-serif" font-size="11" text-anchor="end">50</text>
<line x1="44" y1="34.0" x2="984" y2="34.0" stroke="#1e293b" stroke-width="1"/>
<text x="36" y="38.0" fill="#64748b" font-family="system-ui,-apple-system,Segoe UI,sans-serif" font-size="11" text-anchor="end">100</text>
<path d="M45.00,230.00 V167.36 Q45.00,163.36 49.00,163.36 H54.67 Q58.67,163.36 58.67,167.36 V230.00 Z" fill="#2ea043"><title>2026-08-06: 34</title></path>
<path d="M60.67,230.00 V218.32 Q60.67,214.32 64.67,214.32 H70.33 Q74.33,214.32 74.33,218.32 V230.00 Z" fill="#2ea043"><title>2026-08-07: 8</title></path>
<path d="M92.00,230.00 V230.00 Q92.00,228.00 94.00,228.00 H103.67 Q105.67,228.00 105.67,230.00 V230.00 Z" fill="#2ea043"><title>2026-08-09: 1</title></path>
<path d="M107.67,230.00 V63.48 Q107.67,59.48 111.67,59.48 H117.33 Q121.33,59.48 121.33,63.48 V230.00 Z" fill="#2ea043"><title>2026-08-10: 87</title></path>
<path d="M123.33,230.00 V128.16 Q123.33,124.16 127.33,124.16 H133.00 Q137.00,124.16 137.00,128.16 V230.00 Z" fill="#2ea043"><title>2026-08-11: 54</title></path>
<path d="M139.00,230.00 V120.32 Q139.00,116.32 143.00,116.32 H148.67 Q152.67,116.32 152.67,120.32 V230.00 Z" fill="#2ea043"><title>2026-08-12: 58</title></path>
<path d="M154.67,230.00 V149.72 Q154.67,145.72 158.67,145.72 H164.33 Q168.33,145.72 168.33,149.72 V230.00 Z" fill="#2ea043"><title>2026-08-13: 43</title></path>
<path d="M170.33,230.00 V226.16 Q170.33,222.16 174.33,222.16 H180.00 Q184.00,222.16 184.00,226.16 V230.00 Z" fill="#2ea043"><title>2026-08-14: 4</title></path>
<path d="M201.67,230.00 V230.00 Q201.67,228.00 203.67,228.00 H213.33 Q215.33,228.00 215.33,230.00 V230.00 Z" fill="#2ea043"><title>2026-08-16: 1</title></path>
<path d="M248.67,230.00 V230.00 Q248.67,228.00 250.67,228.00 H260.33 Q262.33,228.00 262.33,230.00 V230.00 Z" fill="#2ea043"><title>2026-08-19: 1</title></path>
<path d="M280.00,230.00 V230.00 Q280.00,228.00 282.00,228.00 H291.67 Q293.67,228.00 293.67,230.00 V230.00 Z" fill="#2ea043"><title>2026-08-21: 1</title></path>
<path d="M295.67,230.00 V230.00 Q295.67,226.08 299.59,226.08 H305.41 Q309.33,226.08 309.33,230.00 V230.00 Z" fill="#2ea043"><title>2026-08-22: 2</title></path>
<path d="M311.33,230.00 V220.28 Q311.33,216.28 315.33,216.28 H321.00 Q325.00,216.28 325.00,220.28 V230.00 Z" fill="#2ea043"><title>2026-08-23: 7</title></path>
<path d="M327.00,230.00 V228.12 Q327.00,224.12 331.00,224.12 H336.67 Q340.67,224.12 340.67,228.12 V230.00 Z" fill="#2ea043"><title>2026-08-24: 3</title></path>
<path d="M342.67,230.00 V206.56 Q342.67,202.56 346.67,202.56 H352.33 Q356.33,202.56 356.33,206.56 V230.00 Z" fill="#2ea043"><title>2026-08-25: 14</title></path>
<path d="M358.33,230.00 V126.20 Q358.33,122.20 362.33,122.20 H368.00 Q372.00,122.20 372.00,126.20 V230.00 Z" fill="#2ea043"><title>2026-08-26: 55</title></path>
<path d="M374.00,230.00 V177.16 Q374.00,173.16 378.00,173.16 H383.67 Q387.67,173.16 387.67,177.16 V230.00 Z" fill="#2ea043"><title>2026-08-27: 29</title></path>
<path d="M389.67,230.00 V210.48 Q389.67,206.48 393.67,206.48 H399.33 Q403.33,206.48 403.33,210.48 V230.00 Z" fill="#2ea043"><title>2026-08-28: 12</title></path>
<path d="M405.33,230.00 V228.12 Q405.33,224.12 409.33,224.12 H415.00 Q419.00,224.12 419.00,228.12 V230.00 Z" fill="#2ea043"><title>2026-08-29: 3</title></path>
<path d="M436.67,230.00 V122.28 Q436.67,118.28 440.67,118.28 H446.33 Q450.33,118.28 450.33,122.28 V230.00 Z" fill="#2ea043"><title>2026-08-31: 57</title></path>
<path d="M452.33,230.00 V147.76 Q452.33,143.76 456.33,143.76 H462.00 Q466.00,143.76 466.00,147.76 V230.00 Z" fill="#2ea043"><title>2026-09-01: 44</title></path>
<path d="M468.00,230.00 V163.44 Q468.00,159.44 472.00,159.44 H477.67 Q481.67,159.44 481.67,163.44 V230.00 Z" fill="#2ea043"><title>2026-09-02: 36</title></path>
<path d="M483.67,230.00 V145.80 Q483.67,141.80 487.67,141.80 H493.33 Q497.33,141.80 497.33,145.80 V230.00 Z" fill="#2ea043"><title>2026-09-03: 45</title></path>
<path d="M499.33,230.00 V134.04 Q499.33,130.04 503.33,130.04 H509.00 Q513.00,130.04 513.00,134.04 V230.00 Z" fill="#2ea043"><title>2026-09-04: 51</title></path>
<path d="M515.00,230.00 V202.64 Q515.00,198.64 519.00,198.64 H524.67 Q528.67,198.64 528.67,202.64 V230.00 Z" fill="#2ea043"><title>2026-09-05: 16</title></path>
<path d="M562.00,230.00 V175.20 Q562.00,171.20 566.00,171.20 H571.67 Q575.67,171.20 575.67,175.20 V230.00 Z" fill="#2ea043"><title>2026-09-08: 30</title></path>
<path d="M577.67,230.00 V188.92 Q577.67,184.92 581.67,184.92 H587.33 Q591.33,184.92 591.33,188.92 V230.00 Z" fill="#2ea043"><title>2026-09-09: 23</title></path>
<path d="M593.33,230.00 V169.32 Q593.33,165.32 597.33,165.32 H603.00 Q607.00,165.32 607.00,169.32 V230.00 Z" fill="#2ea043"><title>2026-09-10: 33</title></path>
<path d="M609.00,230.00 V200.68 Q609.00,196.68 613.00,196.68 H618.67 Q622.67,196.68 622.67,200.68 V230.00 Z" fill="#2ea043"><title>2026-09-11: 17</title></path>
<path d="M656.00,230.00 V167.36 Q656.00,163.36 660.00,163.36 H665.67 Q669.67,163.36 669.67,167.36 V230.00 Z" fill="#2ea043"><title>2026-09-14: 34</title></path>
<path d="M671.67,230.00 V145.80 Q671.67,141.80 675.67,141.80 H681.33 Q685.33,141.80 685.33,145.80 V230.00 Z" fill="#2ea043"><title>2026-09-15: 45</title></path>
<path d="M687.33,230.00 V149.72 Q687.33,145.72 691.33,145.72 H697.00 Q701.00,145.72 701.00,149.72 V230.00 Z" fill="#2ea043"><title>2026-09-16: 43</title></path>
<path d="M703.00,230.00 V112.48 Q703.00,108.48 707.00,108.48 H712.67 Q716.67,108.48 716.67,112.48 V230.00 Z" fill="#2ea043"><title>2026-09-17: 62</title></path>
<path d="M718.67,230.00 V143.84 Q718.67,139.84 722.67,139.84 H728.33 Q732.33,139.84 732.33,143.84 V230.00 Z" fill="#2ea043"><title>2026-09-18: 46</title></path>
<path d="M734.33,230.00 V151.68 Q734.33,147.68 738.33,147.68 H744.00 Q748.00,147.68 748.00,151.68 V230.00 Z" fill="#2ea043"><title>2026-09-19: 42</title></path>
<path d="M750.00,230.00 V224.20 Q750.00,220.20 754.00,220.20 H759.67 Q763.67,220.20 763.67,224.20 V230.00 Z" fill="#2ea043"><title>2026-09-20: 5</title></path>
<path d="M765.67,230.00 V90.92 Q765.67,86.92 769.67,86.92 H775.33 Q779.33,86.92 779.33,90.92 V230.00 Z" fill="#2ea043"><title>2026-09-21: 73</title></path>
<path d="M781.33,230.00 V147.76 Q781.33,143.76 785.33,143.76 H791.00 Q795.00,143.76 795.00,147.76 V230.00 Z" fill="#2ea043"><title>2026-09-22: 44</title></path>
<path d="M797.00,230.00 V183.04 Q797.00,179.04 801.00,179.04 H806.67 Q810.67,179.04 810.67,183.04 V230.00 Z" fill="#2ea043"><title>2026-09-23: 26</title></path>
<path d="M812.67,230.00 V120.32 Q812.67,116.32 816.67,116.32 H822.33 Q826.33,116.32 826.33,120.32 V230.00 Z" fill="#2ea043"><title>2026-09-24: 58</title></path>
<path d="M828.33,230.00 V202.64 Q828.33,198.64 832.33,198.64 H838.00 Q842.00,198.64 842.00,202.64 V230.00 Z" fill="#2ea043"><title>2026-09-25: 16</title></path>
<path d="M844.00,230.00 V228.12 Q844.00,224.12 848.00,224.12 H853.67 Q857.67,224.12 857.67,228.12 V230.00 Z" fill="#2ea043"><title>2026-09-26: 3</title></path>
<path d="M875.33,230.00 V192.84 Q875.33,188.84 879.33,188.84 H885.00 Q889.00,188.84 889.00,192.84 V230.00 Z" fill="#2ea043"><title>2026-09-28: 21</title></path>
<path d="M891.00,230.00 V192.84 Q891.00,188.84 895.00,188.84 H900.67 Q904.67,188.84 904.67,192.84 V230.00 Z" fill="#2ea043"><title>2026-09-29: 21</title></path>
<path d="M906.67,230.00 V220.28 Q906.67,216.28 910.67,216.28 H916.33 Q920.33,216.28 920.33,220.28 V230.00 Z" fill="#2ea043"><title>2026-09-30: 7</title></path>
<path d="M922.33,230.00 V208.52 Q922.33,204.52 926.33,204.52 H932.00 Q936.00,204.52 936.00,208.52 V230.00 Z" fill="#2ea043"><title>2026-10-01: 13</title></path>
<path d="M938.00,230.00 V188.92 Q938.00,184.92 942.00,184.92 H947.67 Q951.67,184.92 951.67,188.92 V230.00 Z" fill="#2ea043"><title>2026-10-02: 23</title></path>
<path d="M953.67,230.00 V228.12 Q953.67,224.12 957.67,224.12 H963.33 Q967.33,224.12 967.33,228.12 V230.00 Z" fill="#2ea043"><title>2026-10-03: 3</title></path>
<line x1="51.8" y1="230" x2="51.8" y2="234" stroke="#1e293b" stroke-width="1"/>
<text x="51.8" y="245" fill="#64748b" font-family="system-ui,-apple-system,Segoe UI,sans-serif" font-size="9" text-anchor="middle">6</text>
<line x1="67.5" y1="230" x2="67.5" y2="234" stroke="#1e293b" stroke-width="1"/>
<text x="67.5" y="245" fill="#64748b" font-family="system-ui,-apple-system,Segoe UI,sans-serif" font-size="9" text-anchor="middle">7</text>
<line x1="83.2" y1="230" x2="83.2" y2="234" stroke="#1e293b" stroke-width="1"/>
<text x="83.2" y="245" fill="#64748b" font-family="system-ui,-apple-system,Segoe UI,sans-serif" font-size="9" text-anchor="middle">8</text>
<line x1="98.8" y1="230" x2="98.8" y2="234" stroke="#1e293b" stroke-width="1"/>
<text x="98.8" y="245" fill="#64748b" font-family="system-ui,-apple-system,Segoe UI,sans-serif" font-size="9" text-anchor="middle">9</text>
<line x1="114.5" y1="230" x2="114.5" y2="234" stroke="#1e293b" stroke-width="1"/>
<text x="114.5" y="245" fill="#64748b" font-family="system-ui,-apple-system,Segoe UI,sans-serif" font-size="9" text-anchor="middle">10</text>
<line x1="130.2" y1="230" x2="130.2" y2="234" stroke="#1e293b" stroke-width="1"/>
<text x="130.2" y="245" fill="#64748b" font-family="system-ui,-apple-system,Segoe UI,sans-serif" font-size="9" text-anchor="middle">11</text>
<line x1="145.8" y1="230" x2="145.8" y2="234" stroke="#1e293b" stroke-width="1"/>
<text x="145.8" y="245" fill="#64748b" font-family="system-ui,-apple-system,Segoe UI,sans-serif" font-size="9" text-anchor="middle">12</text>
<line x1="161.5" y1="230" x2="161.5" y2="234" stroke="#1e293b" stroke-width="1"/>
<text x="161.5" y="245" fill="#64748b" font-family="system-ui,-apple-system,Segoe UI,sans-serif" font-size="9" text-anchor="middle">13</text>
<line x1="177.2" y1="230" x2="177.2" y2="234" stroke="#1e293b" stroke-width="1"/>
<text x="177.2" y="245" fill="#64748b" font-family="system-ui,-apple-system,Segoe UI,sans-serif" font-size="9" text-anchor="middle">14</text>
<line x1="192.8" y1="230" x2="192.8" y2="234" stroke="#1e293b" stroke-width="1"/>
<text x="192.8" y="245" fill="#64748b" font-family="system-ui,-apple-system,Segoe UI,sans-serif" font-size="9" text-anchor="middle">15</text>
<line x1="208.5" y1="230" x2="208.5" y2="234" stroke="#1e293b" stroke-width="1"/>
<text x="208.5" y="245" fill="#64748b" font-family="system-ui,-apple-system,Segoe UI,sans-serif" font-size="9" text-anchor="middle">16</text>
<line x1="224.2" y1="230" x2="224.2" y2="234" stroke="#1e293b" stroke-width="1"/>
<text x="224.2" y="245" fill="#64748b" font-family="system-ui,-apple-system,Segoe UI,sans-serif" font-size="9" text-anchor="middle">17</text>
<line x1="239.8" y1="230" x2="239.8" y2="234" stroke="#1e293b" stroke-width="1"/>
<text x="239.8" y="245" fill="#64748b" font-family="system-ui,-apple-system,Segoe UI,sans-serif" font-size="9" text-anchor="middle">18</text>
<line x1="255.5" y1="230" x2="255.5" y2="234" stroke="#1e293b" stroke-width="1"/>
<text x="255.5" y="245" fill="#64748b" font-family="system-ui,-apple-system,Segoe UI,sans-serif" font-size="9" text-anchor="middle">19</text>
<line x1="271.2" y1="230" x2="271.2" y2="234" stroke="#1e293b" stroke-width="1"/>
<text x="271.2" y="245" fill="#64748b" font-family="system-ui,-apple-system,Segoe UI,sans-serif" font-size="9" text-anchor="middle">20</text>
<line x1="286.8" y1="230" x2="286.8" y2="234" stroke="#1e293b" stroke-width="1"/>
<text x="286.8" y="245" fill="#64748b" font-family="system-ui,-apple-system,Segoe UI,sans-serif" font-size="9" text-anchor="middle">21</text>
<line x1="302.5" y1="230" x2="302.5" y2="234" stroke="#1e293b" stroke-width="1"/>
<text x="302.5" y="245" fill="#64748b" font-family="system-ui,-apple-system,Segoe UI,sans-serif" font-size="9" text-anchor="middle">22</text>
<line x1="318.2" y1="230" x2="318.2" y2="234" stroke="#1e293b" stroke-width="1"/>
<text x="318.2" y="245" fill="#64748b" font-family="system-ui,-apple-system,Segoe UI,sans-serif" font-size="9" text-anchor="middle">23</text>
<line x1="333.8" y1="230" x2="333.8" y2="234" stroke="#1e293b" stroke-width="1"/>
<text x="333.8" y="245" fill="#64748b" font-family="system-ui,-apple-system,Segoe UI,sans-serif" font-size="9" text-anchor="middle">24</text>
<line x1="349.5" y1="230" x2="349.5" y2="234" stroke="#1e293b" stroke-width="1"/>
<text x="349.5" y="245" fill="#64748b" font-family="system-ui,-apple-system,Segoe UI,sans-serif" font-size="9" text-anchor="middle">25</text>
<line x1="365.2" y1="230" x2="365.2" y2="234" stroke="#1e293b" stroke-width="1"/>
<text x="365.2" y="245" fill="#64748b" font-family="system-ui,-apple-system,Segoe UI,sans-serif" font-size="9" text-anchor="middle">26</text>
<line x1="380.8" y1="230" x2="380.8" y2="234" stroke="#1e293b" stroke-width="1"/>
<text x="380.8" y="245" fill="#64748b" font-family="system-ui,-apple-system,Segoe UI,sans-serif" font-size="9" text-anchor="middle">27</text>
<line x1="396.5" y1="230" x2="396.5" y2="234" stroke="#1e293b" stroke-width="1"/>
<text x="396.5" y="245" fill="#64748b" font-family="system-ui,-apple-system,Segoe UI,sans-serif" font-size="9" text-anchor="middle">28</text>
<line x1="412.2" y1="230" x2="412.2" y2="234" stroke="#1e293b" stroke-width="1"/>
<text x="412.2" y="245" fill="#64748b" font-family="system-ui,-apple-system,Segoe UI,sans-serif" font-size="9" text-anchor="middle">29</text>
<line x1="427.8" y1="230" x2="427.8" y2="234" stroke="#1e293b" stroke-width="1"/>
<text x="427.8" y="245" fill="#64748b" font-family="system-ui,-apple-system,Segoe UI,sans-serif" font-size="9" text-anchor="middle">30</text>
<line x1="443.5" y1="230" x2="443.5" y2="234" stroke="#1e293b" stroke-width="1"/>
<text x="443.5" y="245" fill="#64748b" font-family="system-ui,-apple-system,Segoe UI,sans-serif" font-size="9" text-anchor="middle">31</text>
<line x1="459.2" y1="230" x2="459.2" y2="234" stroke="#1e293b" stroke-width="1"/>
<text x="459.2" y="245" fill="#64748b" font-family="system-ui,-apple-system,Segoe UI,sans-serif" font-size="9" text-anchor="middle">1</text>
<line x1="474.8" y1="230" x2="474.8" y2="234" stroke="#1e293b" stroke-width="1"/>
<text x="474.8" y="245" fill="#64748b" font-family="system-ui,-apple-system,Segoe UI,sans-serif" font-size="9" text-anchor="middle">2</text>
<line x1="490.5" y1="230" x2="490.5" y2="234" stroke="#1e293b" stroke-width="1"/>
<text x="490.5" y="245" fill="#64748b" font-family="system-ui,-apple-system,Segoe UI,sans-serif" font-size="9" text-anchor="middle">3</text>
<line x1="506.2" y1="230" x2="506.2" y2="234" stroke="#1e293b" stroke-width="1"/>
<text x="506.2" y="245" fill="#64748b" font-family="system-ui,-apple-system,Segoe UI,sans-serif" font-size="9" text-anchor="middle">4</text>
<line x1="521.8" y1="230" x2="521.8" y2="234" stroke="#1e293b" stroke-width="1"/>
<text x="521.8" y="245" fill="#64748b" font-family="system-ui,-apple-system,Segoe UI,sans-serif" font-size="9" text-anchor="middle">5</text>
<line x1="537.5" y1="230" x2="537.5" y2="234" stroke="#1e293b" stroke-width="1"/>
<text x="537.5" y="245" fill="#64748b" font-family="system-ui,-apple-system,Segoe UI,sans-serif" font-size="9" text-anchor="middle">6</text>
<line x1="553.2" y1="230" x2="553.2" y2="234" stroke="#1e293b" stroke-width="1"/>
<text x="553.2" y="245" fill="#64748b" font-family="system-ui,-apple-system,Segoe UI,sans-serif" font-size="9" text-anchor="middle">7</text>
<line x1="568.8" y1="230" x2="568.8" y2="234" stroke="#1e293b" stroke-width="1"/>
<text x="568.8" y="245" fill="#64748b" font-family="system-ui,-apple-system,Segoe UI,sans-serif" font-size="9" text-anchor="middle">8</text>
<line x1="584.5" y1="230" x2="584.5" y2="234" stroke="#1e293b" stroke-width="1"/>
<text x="584.5" y="245" fill="#64748b" font-family="system-ui,-apple-system,Segoe UI,sans-serif" font-size="9" text-anchor="middle">9</text>
<line x1="600.2" y1="230" x2="600.2" y2="234" stroke="#1e293b" stroke-width="1"/>
<text x="600.2" y="245" fill="#64748b" font-family="system-ui,-apple-system,Segoe UI,sans-serif" font-size="9" text-anchor="middle">10</text>
<line x1="615.8" y1="230" x2="615.8" y2="234" stroke="#1e293b" stroke-width="1"/>
<text x="615.8" y="245" fill="#64748b" font-family="system-ui,-apple-system,Segoe UI,sans-serif" font-size="9" text-anchor="middle">11</text>
<line x1="631.5" y1="230" x2="631.5" y2="234" stroke="#1e293b" stroke-width="1"/>
<text x="631.5" y="245" fill="#64748b" font-family="system-ui,-apple-system,Segoe UI,sans-serif" font-size="9" text-anchor="middle">12</text>
<line x1="647.2" y1="230" x2="647.2" y2="234" stroke="#1e293b" stroke-width="1"/>
<text x="647.2" y="245" fill="#64748b" font-family="system-ui,-apple-system,Segoe UI,sans-serif" font-size="9" text-anchor="middle">13</text>
<line x1="662.8" y1="230" x2="662.8" y2="234" stroke="#1e293b" stroke-width="1"/>
<text x="662.8" y="245" fill="#64748b" font-family="system-ui,-apple-system,Segoe UI,sans-serif" font-size="9" text-anchor="middle">14</text>
<line x1="678.5" y1="230" x2="678.5" y2="234" stroke="#1e293b" stroke-width="1"/>
<text x="678.5" y="245" fill="#64748b" font-family="system-ui,-apple-system,Segoe UI,sans-serif" font-size="9" text-anchor="middle">15</text>
<line x1="694.2" y1="230" x2="694.2" y2="234" stroke="#1e293b" stroke-width="1"/>
<text x="694.2" y="245" fill="#64748b" font-family="system-ui,-apple-system,Segoe UI,sans-serif" font-size="9" text-anchor="middle">16</text>
<line x1="709.8" y1="230" x2="709.8" y2="234" stroke="#1e293b" stroke-width="1"/>
<text x="709.8" y="245" fill="#64748b" font-family="system-ui,-apple-system,Segoe UI,sans-serif" font-size="9" text-anchor="middle">17</text>
<line x1="725.5" y1="230" x2="725.5" y2="234" stroke="#1e293b" stroke-width="1"/>
<text x="725.5" y="245" fill="#64748b" font-family="system-ui,-apple-system,Segoe UI,sans-serif" font-size="9" text-anchor="middle">18</text>
<line x1="741.2" y1="230" x2="741.2" y2="234" stroke="#1e293b" stroke-width="1"/>
<text x="741.2" y="245" fill="#64748b" font-family="system-ui,-apple-system,Segoe UI,sans-serif" font-size="9" text-anchor="middle">19</text>
<line x1="756.8" y1="230" x2="756.8" y2="234" stroke="#1e293b" stroke-width="1"/>
<text x="756.8" y="245" fill="#64748b" font-family="system-ui,-apple-system,Segoe UI,sans-serif" font-size="9" text-anchor="middle">20</text>
<line x1="772.5" y1="230" x2="772.5" y2="234" stroke="#1e293b" stroke-width="1"/>
<text x="772.5" y="245" fill="#64748b" font-family="system-ui,-apple-system,Segoe UI,sans-serif" font-size="9" text-anchor="middle">21</text>
<line x1="788.2" y1="230" x2="788.2" y2="234" stroke="#1e293b" stroke-width="1"/>
<text x="788.2" y="245" fill="#64748b" font-family="system-ui,-apple-system,Segoe UI,sans-serif" font-size="9" text-anchor="middle">22</text>
<line x1="803.8" y1="230" x2="803.8" y2="234" stroke="#1e293b" stroke-width="1"/>
<text x="803.8" y="245" fill="#64748b" font-family="system-ui,-apple-system,Segoe UI,sans-serif" font-size="9" text-anchor="middle">23</text>
<line x1="819.5" y1="230" x2="819.5" y2="234" stroke="#1e293b" stroke-width="1"/>
<text x="819.5" y="245" fill="#64748b" font-family="system-ui,-apple-system,Segoe UI,sans-serif" font-size="9" text-anchor="middle">24</text>
<line x1="835.2" y1="230" x2="835.2" y2="234" stroke="#1e293b" stroke-width="1"/>
<text x="835.2" y="245" fill="#64748b" font-family="system-ui,-apple-system,Segoe UI,sans-serif" font-size="9" text-anchor="middle">25</text>
<line x1="850.8" y1="230" x2="850.8" y2="234" stroke="#1e293b" stroke-width="1"/>
<text x="850.8" y="245" fill="#64748b" font-family="system-ui,-apple-system,Segoe UI,sans-serif" font-size="9" text-anchor="middle">26</text>
<line x1="866.5" y1="230" x2="866.5" y2="234" stroke="#1e293b" stroke-width="1"/>
<text x="866.5" y="245" fill="#64748b" font-family="system-ui,-apple-system,Segoe UI,sans-serif" font-size="9" text-anchor="middle">27</text>
<line x1="882.2" y1="230" x2="882.2" y2="234" stroke="#1e293b" stroke-width="1"/>
<text x="882.2" y="245" fill="#64748b" font-family="system-ui,-apple-system,Segoe UI,sans-serif" font-size="9" text-anchor="middle">28</text>
<line x1="897.8" y1="230" x2="897.8" y2="234" stroke="#1e293b" stroke-width="1"/>
<text x="897.8" y="245" fill="#64748b" font-family="system-ui,-apple-system,Segoe UI,sans-serif" font-size="9" text-anchor="middle">29</text>
<line x1="913.5" y1="230" x2="913.5" y2="234" stroke="#1e293b" stroke-width="1"/>
<text x="913.5" y="245" fill="#64748b" font-family="system-ui,-apple-system,Segoe UI,sans-serif" font-size="9" text-anchor="middle">30</text>
<line x1="929.2" y1="230" x2="929.2" y2="234" stroke="#1e293b" stroke-width="1"/>
<text x="929.2" y="245" fill="#64748b" font-family="system-ui,-apple-system,Segoe UI,sans-serif" font-size="9" text-anchor="middle">1</text>
<line x1="944.8" y1="230" x2="944.8" y2="234" stroke="#1e293b" stroke-width="1"/>
<text x="944.8" y="245" fill="#64748b" font-family="system-ui,-apple-system,Segoe UI,sans-serif" font-size="9" text-anchor="middle">2</text>
<line x1="960.5" y1="230" x2="960.5" y2="234" stroke="#1e293b" stroke-width="1"/>
<text x="960.5" y="245" fill="#64748b" font-family="system-ui,-apple-system,Segoe UI,sans-serif" font-size="9" text-anchor="middle">3</text>
<line x1="976.2" y1="230" x2="976.2" y2="234" stroke="#1e293b" stroke-width="1"/>
<text x="976.2" y="245" fill="#64748b" font-family="system-ui,-apple-system,Segoe UI,sans-serif" font-size="9" text-anchor="middle">4</text>
<text x="247.7" y="261" fill="#94a3b8" font-family="system-ui,-apple-system,Segoe UI,sans-serif" font-size="11" text-anchor="middle">Aug</text>
<text x="686.3" y="261" fill="#94a3b8" font-family="system-ui,-apple-system,Segoe UI,sans-serif" font-size="11" text-anchor="middle">Sep</text>
<text x="952.7" y="261" fill="#94a3b8" font-family="system-ui,-apple-system,Segoe UI,sans-serif" font-size="11" text-anchor="middle">Oct</text>
</svg>